<?xml version="1.0" standalone="no"?>
<!DOCTYPE svg PUBLIC "-//W3C//DTD SVG 20010904//EN"
 "http://www.w3.org/TR/2001/REC-SVG-20010904/DTD/svg10.dtd">
<svg version="1.0" xmlns="http://www.w3.org/2000/svg"
 width="600.000000pt" height="142.000000pt" viewBox="0 0 600.000000 142.000000"
 preserveAspectRatio="xMidYMid meet">
<metadata>
Created by potrace 1.15, written by Peter Selinger 2001-2017
</metadata>
<g transform="translate(0.000000,142.000000) scale(0.100000,-0.100000)"
fill="#000000" stroke="none">
<path d="M2580 1414 c-66 -10 -138 -28 -163 -41 -21 -11 -27 -19 -23 -36 3
-12 3 -16 0 -9 -18 38 -107 -16 -123 -76 -16 -58 -9 -194 12 -225 24 -37 73
-38 87 -1 24 63 5 182 -34 211 l-23 18 26 22 c33 29 61 29 106 -1 33 -23 81
-33 170 -35 17 -1 32 -6 33 -11 4 -12 144 -13 157 -1 6 5 45 11 88 14 61 4 77
3 77 -8 0 -8 22 -21 52 -30 63 -18 68 -19 68 -2 0 7 -19 22 -42 32 -36 17 -39
20 -20 23 30 5 29 42 -2 71 -64 60 -303 106 -446 85z m250 -49 c39 -8 97 -27
128 -42 47 -22 53 -28 36 -34 -10 -4 -48 -8 -84 -9 -36 0 -98 -5 -138 -9 -40
-5 -81 -7 -90 -4 -10 2 -27 28 -39 59 l-21 54 68 0 c38 0 101 -7 140 -15z"/>
<path d="M3072 1263 c2 -10 12 -19 23 -21 11 -2 29 -7 40 -12 11 -5 52 -18 90
-29 86 -23 141 -45 161 -66 14 -13 10 -15 -38 -15 -62 0 -140 -21 -146 -40 -4
-10 6 -11 39 -7 86 12 164 25 180 32 10 4 27 -3 45 -19 l29 -25 -92 -1 c-93 0
-131 -12 -185 -58 -23 -20 -24 -98 -2 -123 15 -16 13 -19 -28 -40 -44 -23
-109 -28 -208 -16 -25 3 -48 6 -52 6 -5 1 -8 24 -8 52 0 85 -18 135 -69 189
-44 47 -50 50 -97 50 -70 0 -99 -17 -100 -60 -1 -75 1 -73 -51 -43 -92 52
-124 66 -168 71 -37 4 -45 2 -45 -12 0 -9 8 -16 20 -16 11 0 20 -4 20 -10 0
-5 -11 -10 -25 -10 -27 0 -32 -12 -12 -28 28 -23 199 -104 232 -109 27 -4 39
-13 51 -38 19 -41 71 -94 103 -107 32 -12 66 -3 91 22 25 25 61 25 130 0 60
-22 91 -25 118 -11 42 21 86 31 93 20 6 -10 104 9 247 48 63 18 63 18 57 48
-4 17 -6 47 -6 68 1 41 -23 53 -34 16 -9 -27 -98 -69 -147 -69 -20 0 -38 -5
-40 -11 -5 -16 -45 9 -50 31 -7 28 2 45 36 68 29 20 51 24 145 29 108 6 111 7
111 29 0 36 -46 129 -72 146 -39 26 -99 42 -107 29 -8 -12 -63 1 -87 21 -14
10 -138 38 -172 38 -17 0 -23 -5 -20 -17z"/>
<path d="M2856 1171 c-13 -20 9 -42 80 -77 41 -21 74 -41 74 -45 0 -13 81 -39
124 -39 78 0 96 19 54 56 -48 41 -202 105 -246 103 -20 -1 -47 1 -59 5 -12 4
-24 3 -27 -3z"/>
<path d="M3007 952 c-23 -25 -38 -72 -32 -93 8 -26 35 -24 35 1 0 27 43 70 71
70 46 0 66 -64 24 -74 -38 -10 -30 -26 14 -26 47 0 65 19 59 65 -2 19 0 36 6
38 5 2 7 11 3 20 -10 25 -157 25 -180 -1z"/>
</g>
</svg>
